<?xml version="1.0" encoding="utf-8"?>
<!-- Generator: Adobe Illustrator 23.0.3, SVG Export Plug-In . SVG Version: 6.00 Build 0)  -->
<svg version="1.1" id="Icons" xmlns="http://www.w3.org/2000/svg" xmlns:xlink="http://www.w3.org/1999/xlink" x="0px" y="0px"
	 viewBox="0 0 32 32" style="enable-background:new 0 0 32 32;" xml:space="preserve">
<style type="text/css">
	.st0{fill:none;stroke:#c0c0c0;stroke-width:2;stroke-linecap:round;stroke-linejoin:round;stroke-miterlimit:10;}
</style>
<path class="st0" d="M21.9,18.1l-0.6-0.8c-0.9-1.4-1.4-3.1-1.4-4.8c0-1.8-1.2-3.3-2.8-3.7C16.9,8.3,16.5,8,16,8
	c-0.5,0-0.9,0.3-1.1,0.7c-1.6,0.5-2.8,2-2.8,3.7c0,1.7-0.5,3.4-1.4,4.8l-0.6,0.8c-0.3,0.4,0,0.9,0.5,0.9h10.8
	C21.9,19,22.2,18.5,21.9,18.1z"/>
<path class="st0" d="M19,19c0,1.7-1.3,3-3,3s-3-1.3-3-3"/>
<!-- <line class="st0" x1="3.9" y1="9" x2="7.3" y2="11"/>
<line class="st0" x1="2" y1="16" x2="6" y2="16"/>
<line class="st0" x1="3.9" y1="23" x2="7.3" y2="21"/>
<line class="st0" x1="28.1" y1="23" x2="24.7" y2="21"/>
<line class="st0" x1="30" y1="16" x2="26" y2="16"/>
<line class="st0" x1="28.1" y1="9" x2="24.7" y2="11"/> -->
</svg>
